<svg id="svg" version="1.1" xmlns="http://www.w3.org/2000/svg" xmlns:xlink="http://www.w3.org/1999/xlink" width="300" height="200" viewBox="50, 75, 300,300"><g id="svgg"><path id="path0" d="M224.814 110.426 C 221.737 111.231,220.076 112.163,217.526 114.515 C 216.086 115.844,215.953 115.880,211.657 116.126 C 201.827 116.689,190.626 120.204,183.574 124.939 C 179.275 127.826,172.750 134.180,172.216 136.000 C 172.031 136.628,172.361 136.323,173.102 135.179 C 174.357 133.242,178.643 129.185,182.600 126.188 C 189.559 120.917,203.882 116.400,213.635 116.400 C 216.017 116.400,216.193 116.329,218.002 114.637 C 228.720 104.611,246.530 111.093,255.819 128.400 C 257.776 132.046,257.437 139.334,254.966 146.731 C 253.974 149.704,253.318 150.640,248.630 155.776 C 245.202 159.531,243.560 161.715,242.015 164.573 C 235.003 177.541,231.676 180.759,224.910 181.114 C 218.513 181.450,215.243 180.449,210.907 176.826 L 208.484 174.801 206.742 175.592 C 204.524 176.598,203.745 176.593,200.959 175.550 L 198.689 174.701 195.765 176.205 C 193.306 177.470,192.590 177.669,191.259 177.456 C 188.805 177.063,186.703 180.832,189.100 181.327 C 200.317 183.641,199.575 202.237,188.055 207.547 C 175.523 213.323,160.895 205.822,155.994 191.108 C 155.187 188.686,154.912 188.308,153.249 187.336 C 149.230 184.988,144.668 179.485,143.791 175.929 L 143.528 174.857 145.664 175.412 C 146.839 175.717,149.240 176.019,151.000 176.083 L 154.200 176.200 154.297 175.000 C 154.823 168.468,156.067 162.591,157.894 158.000 C 158.893 155.490,159.295 154.770,162.355 150.009 C 163.860 147.668,166.921 143.904,170.067 140.524 C 171.130 139.382,171.999 138.122,171.999 137.724 C 171.997 137.193,171.796 137.319,171.242 138.200 C 170.827 138.860,169.417 140.591,168.109 142.046 C 158.934 152.251,155.179 160.433,154.087 172.600 L 153.800 175.800 151.200 175.673 C 149.770 175.603,147.459 175.287,146.065 174.971 C 142.955 174.265,142.696 174.404,143.402 176.407 C 144.846 180.499,149.739 186.239,153.060 187.737 C 154.483 188.379,154.758 188.733,155.386 190.732 C 160.995 208.605,181.366 216.093,192.922 204.531 C 200.229 197.221,198.581 183.724,190.069 181.173 C 188.188 180.610,188.200 180.639,189.165 179.000 C 189.797 177.928,190.048 177.814,191.524 177.933 C 192.811 178.037,193.766 177.753,195.846 176.649 L 198.516 175.231 200.954 176.052 C 203.543 176.924,205.171 176.872,207.215 175.853 C 208.385 175.269,208.442 175.291,210.702 177.236 C 216.889 182.560,227.821 183.302,232.830 178.739 C 235.000 176.762,239.814 169.664,243.015 163.721 C 244.297 161.339,246.107 159.057,250.495 154.285 C 255.069 149.311,257.036 144.196,257.486 136.107 C 257.814 130.218,255.724 125.612,249.889 119.364 C 241.786 110.687,234.176 107.975,224.814 110.426 M228.000 114.036 C 222.370 114.689,219.681 116.558,212.751 124.630 C 209.116 128.864,208.890 128.847,211.048 124.500 C 213.273 120.016,213.361 120.239,209.495 120.536 C 194.468 121.691,176.548 131.225,174.398 139.207 C 174.165 140.072,173.141 141.694,172.080 142.878 C 167.175 148.353,162.800 154.060,162.800 154.982 C 162.800 155.231,163.579 155.642,164.531 155.897 C 165.483 156.152,166.698 156.744,167.231 157.213 C 168.065 157.948,168.089 158.031,167.400 157.806 C 161.957 156.034,161.383 156.288,159.724 161.209 C 157.738 167.102,157.757 167.306,160.335 167.688 C 164.254 168.267,164.664 169.167,160.968 169.077 L 157.826 169.000 157.499 171.200 C 157.320 172.410,157.224 174.660,157.287 176.200 L 157.400 179.000 161.000 179.279 C 168.385 179.852,171.220 178.909,172.622 175.417 C 173.148 174.106,174.416 171.676,175.439 170.017 C 176.632 168.082,177.334 166.463,177.397 165.502 C 177.505 163.839,178.949 161.445,180.193 160.871 C 180.637 160.666,181.540 159.454,182.200 158.177 C 183.576 155.515,184.105 156.240,182.974 159.237 C 182.608 160.207,182.310 161.405,182.312 161.900 C 182.315 162.625,182.092 162.800,181.168 162.800 C 179.680 162.800,178.256 165.044,179.486 165.450 C 181.964 166.269,184.550 167.877,186.166 169.605 C 187.192 170.702,188.171 171.600,188.341 171.600 C 189.005 171.600,190.800 169.308,190.800 168.461 C 190.800 167.959,191.020 167.608,191.300 167.662 C 191.575 167.716,192.953 167.003,194.362 166.080 C 196.525 164.661,198.000 164.028,198.000 164.518 C 198.000 164.583,197.105 165.318,196.011 166.152 C 194.918 166.986,193.629 168.328,193.148 169.134 C 192.666 169.940,191.837 171.075,191.304 171.656 C 189.724 173.378,190.910 173.354,194.280 171.596 L 197.400 169.969 200.338 170.973 L 203.275 171.978 204.877 171.161 C 210.139 168.476,211.851 164.147,212.034 153.058 L 212.068 151.000 212.617 153.200 C 213.731 157.662,213.393 166.190,211.985 169.166 L 210.771 171.732 212.081 173.083 C 214.859 175.950,221.161 177.528,225.800 176.518 C 227.619 176.122,229.167 173.842,230.022 170.300 C 230.589 167.949,231.048 167.887,231.500 170.100 L 231.847 171.800 233.727 168.890 C 240.468 158.457,240.736 157.496,237.911 153.900 C 236.178 151.694,239.028 152.609,241.504 155.053 C 241.907 155.451,242.577 154.948,244.858 152.539 L 247.708 149.527 247.497 146.146 C 247.316 143.239,247.363 142.866,247.830 143.483 C 248.130 143.877,248.380 144.503,248.387 144.874 C 248.441 147.730,249.798 147.934,250.551 145.200 C 253.556 134.290,253.288 131.877,248.321 125.117 C 242.358 117.001,235.353 113.182,228.000 114.036 M234.680 127.292 C 236.878 128.774,238.803 130.458,239.246 131.286 C 239.463 131.692,238.298 131.101,236.564 129.924 C 231.853 126.727,227.331 126.726,224.970 129.921 C 224.369 130.734,223.328 131.986,222.658 132.702 L 221.439 134.005 224.019 133.751 C 227.192 133.439,226.853 133.935,223.069 135.143 C 219.475 136.290,215.835 138.593,216.183 139.500 C 216.323 139.865,216.542 140.982,216.670 141.982 L 216.902 143.800 215.367 140.856 C 213.872 137.990,213.853 137.898,214.616 137.370 C 216.346 136.172,221.533 131.283,223.019 129.449 C 226.203 125.518,230.791 124.670,234.680 127.292 M194.298 136.481 C 195.164 137.200,194.848 137.590,193.600 137.340 C 192.440 137.108,192.400 137.149,192.400 138.576 C 192.400 139.388,192.212 140.403,191.983 140.832 C 191.658 141.439,191.706 141.666,192.201 141.856 C 193.667 142.418,191.105 143.399,188.170 143.400 C 185.687 143.400,185.160 143.263,183.870 142.280 C 182.046 140.889,182.003 140.386,183.733 140.667 C 184.924 140.860,185.321 140.646,187.478 138.649 C 190.749 135.621,192.565 135.043,194.298 136.481 M190.100 137.997 C 191.100 138.629,190.964 140.272,189.818 141.418 C 188.658 142.578,187.755 142.659,186.673 141.700 C 186.053 141.150,185.924 141.129,186.074 141.600 C 186.441 142.752,188.286 143.041,189.501 142.137 C 191.444 140.690,191.714 138.149,189.971 137.701 C 189.640 137.615,189.694 137.740,190.100 137.997 M186.800 140.700 C 186.800 140.865,187.249 141.026,187.798 141.058 C 188.346 141.089,188.695 140.954,188.574 140.758 C 188.307 140.325,186.800 140.277,186.800 140.700 M180.349 146.739 C 177.315 150.822,176.676 151.610,176.522 151.456 C 176.159 151.092,178.007 148.065,179.213 147.050 C 180.674 145.821,181.122 145.698,180.349 146.739 M177.844 168.500 L 177.115 169.800 178.119 168.601 L 179.122 167.403 180.861 168.260 C 182.957 169.293,186.000 171.858,186.000 172.591 C 186.000 173.774,182.207 180.586,180.660 182.180 C 176.736 186.224,165.660 187.504,157.846 184.816 C 153.353 183.270,147.033 179.265,149.000 179.210 C 149.909 179.185,149.050 178.418,148.100 178.406 C 145.428 178.373,152.761 183.532,157.943 185.331 C 166.793 188.403,178.991 186.263,182.296 181.057 C 186.412 174.576,186.897 172.632,184.900 170.627 C 181.733 167.446,178.911 166.596,177.844 168.500 M175.580 172.440 C 174.902 173.783,174.414 174.947,174.494 175.028 C 174.575 175.108,175.215 174.010,175.917 172.587 C 176.618 171.164,177.107 170.000,177.002 170.000 C 176.897 170.000,176.257 171.098,175.580 172.440 M172.971 178.850 C 172.971 179.268,173.147 179.551,173.361 179.480 C 173.989 179.270,174.079 178.516,173.503 178.295 C 173.176 178.169,172.971 178.383,172.971 178.850 M152.200 180.000 C 152.640 180.189,153.360 180.344,153.800 180.344 L 154.600 180.344 153.800 180.000 C 153.360 179.811,152.640 179.656,152.200 179.656 L 151.400 179.656 152.200 180.000 M156.000 180.793 C 156.988 181.116,160.289 181.335,159.967 181.056 C 159.875 180.976,158.720 180.811,157.400 180.688 C 155.909 180.549,155.379 180.589,156.000 180.793 M169.124 180.609 C 169.009 180.724,166.954 180.984,164.557 181.186 L 160.200 181.553 164.400 181.403 C 167.857 181.279,172.208 180.515,169.967 180.425 C 169.618 180.411,169.239 180.494,169.124 180.609 M183.600 185.600 C 183.600 185.820,182.874 186.000,181.987 186.000 C 179.530 186.000,179.225 188.402,181.641 188.730 C 182.168 188.802,183.264 189.387,184.076 190.030 C 185.650 191.276,186.253 191.061,185.836 189.402 C 185.505 188.083,186.189 187.807,187.171 188.861 C 191.360 193.357,184.301 199.353,178.261 196.430 C 175.865 195.270,172.969 192.113,172.415 190.057 L 171.975 188.420 167.687 188.662 C 164.381 188.849,162.814 188.753,160.840 188.245 C 157.745 187.448,157.803 187.401,158.578 190.057 C 159.828 194.346,161.556 196.571,163.812 196.800 C 165.741 196.996,165.758 197.010,164.690 197.491 C 163.170 198.177,163.303 198.552,165.700 200.342 C 168.777 202.640,171.091 203.700,172.632 203.520 C 173.620 203.405,173.995 203.537,174.128 204.046 C 174.545 205.640,181.431 205.397,185.384 203.648 C 194.776 199.494,194.959 185.200,185.620 185.200 C 184.509 185.200,183.600 185.380,183.600 185.600 " stroke="none" fill="#596169" fill-rule="evenodd"></path><path id="path1" d="M228.000 105.943 C 228.000 106.132,226.952 106.396,225.672 106.529 C 224.392 106.663,222.817 107.048,222.172 107.384 C 221.527 107.720,220.687 107.996,220.303 107.998 C 219.920 107.999,219.382 108.360,219.107 108.800 C 218.832 109.240,218.342 109.600,218.017 109.600 C 217.691 109.600,217.001 110.094,216.482 110.698 C 215.697 111.611,215.087 111.846,212.869 112.088 C 207.262 112.700,199.492 114.020,199.200 114.411 C 199.090 114.558,198.190 114.803,197.200 114.955 C 195.198 115.263,193.200 116.034,193.200 116.498 C 193.200 116.664,192.795 116.801,192.300 116.802 C 191.805 116.804,190.884 117.074,190.254 117.402 C 189.624 117.731,188.859 118.000,188.554 118.000 C 188.249 118.000,188.000 118.172,188.000 118.382 C 188.000 118.592,187.370 118.882,186.600 119.026 C 185.830 119.171,185.200 119.428,185.200 119.598 C 185.200 119.768,184.885 120.012,184.500 120.142 C 183.699 120.411,182.485 121.170,181.688 121.900 C 181.388 122.175,180.898 122.400,180.598 122.400 C 180.299 122.400,179.943 122.751,179.806 123.180 C 179.670 123.608,179.169 124.083,178.692 124.234 C 177.703 124.548,169.600 132.509,169.600 133.167 C 169.600 133.405,169.440 133.600,169.245 133.600 C 169.049 133.600,168.764 134.266,168.611 135.080 C 168.433 136.029,167.771 137.123,166.767 138.127 C 165.905 138.989,165.200 139.841,165.200 140.020 C 165.200 140.199,164.840 140.460,164.400 140.600 C 163.960 140.740,163.600 141.110,163.600 141.423 C 163.600 141.737,163.060 142.509,162.400 143.140 C 161.740 143.771,161.200 144.563,161.200 144.901 C 161.200 145.238,160.930 145.618,160.600 145.745 C 160.270 145.871,160.000 146.169,160.000 146.406 C 160.000 146.643,159.550 147.286,159.000 147.836 C 158.450 148.386,158.000 149.098,158.000 149.418 C 158.000 149.738,157.820 150.000,157.600 150.000 C 157.380 150.000,157.200 150.270,157.200 150.600 C 157.200 150.930,157.020 151.200,156.800 151.200 C 156.580 151.200,156.400 151.566,156.400 152.013 C 156.400 152.459,156.130 152.929,155.800 153.055 C 155.470 153.182,155.200 153.516,155.200 153.797 C 155.200 154.078,154.931 154.824,154.602 155.454 C 154.274 156.084,154.004 156.915,154.002 157.300 C 154.001 157.685,153.837 158.000,153.638 158.000 C 153.438 158.000,153.151 158.900,153.000 160.000 C 152.849 161.099,152.562 162.100,152.363 162.223 C 152.163 162.346,152.000 162.876,152.000 163.400 C 152.000 163.924,151.842 164.451,151.648 164.570 C 151.454 164.690,151.168 166.501,151.011 168.594 C 150.854 170.687,150.562 172.400,150.363 172.400 C 150.163 172.400,150.000 172.220,150.000 172.000 C 150.000 171.780,149.201 171.600,148.224 171.600 C 147.247 171.600,146.349 171.441,146.229 171.247 C 145.478 170.032,139.600 170.383,139.600 171.643 C 139.600 172.060,139.420 172.400,139.200 172.400 C 138.706 172.400,138.675 174.163,139.151 175.105 C 140.001 176.786,140.800 178.874,140.800 179.414 C 140.800 179.736,140.966 180.000,141.168 180.000 C 141.371 180.000,141.657 180.549,141.804 181.219 C 141.951 181.890,142.416 182.653,142.836 182.915 C 143.256 183.178,143.600 183.637,143.600 183.936 C 143.600 184.571,148.151 189.200,148.775 189.200 C 149.009 189.200,149.200 189.368,149.200 189.573 C 149.200 189.778,149.597 190.072,150.081 190.226 C 151.111 190.553,152.000 191.361,152.000 191.971 C 152.000 192.207,152.157 192.400,152.349 192.400 C 152.541 192.400,152.813 193.120,152.954 194.000 C 153.094 194.880,153.367 195.600,153.560 195.600 C 153.753 195.600,154.029 196.230,154.174 197.000 C 154.318 197.770,154.608 198.400,154.818 198.400 C 155.028 198.400,155.200 198.670,155.200 199.000 C 155.200 199.330,155.360 199.600,155.557 199.600 C 155.753 199.600,156.026 200.050,156.164 200.600 C 156.302 201.150,156.592 201.600,156.808 201.600 C 157.023 201.600,157.200 201.788,157.200 202.017 C 157.200 202.442,157.790 203.258,158.719 204.119 C 159.438 204.785,159.860 205.228,160.987 206.500 C 161.523 207.105,162.246 207.600,162.593 207.600 C 162.941 207.600,163.329 207.870,163.455 208.200 C 163.582 208.530,164.026 208.800,164.443 208.800 C 164.859 208.800,165.200 208.967,165.200 209.171 C 165.200 209.671,169.059 211.522,170.800 211.857 C 171.570 212.005,172.328 212.322,172.485 212.563 C 172.917 213.224,186.879 213.163,187.100 212.500 C 187.192 212.225,187.449 212.000,187.673 212.000 C 188.183 212.000,190.931 210.734,191.200 210.375 C 191.310 210.228,191.796 209.984,192.280 209.833 C 192.763 209.683,193.270 209.209,193.406 208.780 C 193.542 208.352,194.091 207.892,194.627 207.758 C 195.162 207.623,195.600 207.338,195.600 207.123 C 195.600 206.909,196.230 206.121,197.000 205.374 C 197.770 204.626,198.400 203.741,198.400 203.407 C 198.400 203.073,198.566 202.800,198.768 202.800 C 198.971 202.800,199.255 202.258,199.401 201.596 C 199.546 200.934,199.930 199.862,200.253 199.214 C 201.228 197.259,201.016 186.800,200.001 186.800 C 199.829 186.800,199.571 186.170,199.426 185.400 C 199.282 184.630,198.992 184.000,198.782 184.000 C 198.572 184.000,198.400 183.812,198.400 183.583 C 198.400 183.353,197.950 182.680,197.400 182.087 C 195.115 179.623,198.864 178.579,203.073 180.506 C 203.553 180.726,204.273 180.772,204.673 180.607 C 206.783 179.739,207.984 179.692,208.851 180.444 C 209.330 180.860,209.925 181.200,210.173 181.200 C 210.421 181.200,210.878 181.553,211.189 181.985 C 211.501 182.417,212.260 182.881,212.878 183.017 C 213.495 183.153,214.000 183.429,214.000 183.632 C 214.000 183.834,214.324 184.000,214.720 184.000 C 215.116 184.000,215.665 184.225,215.940 184.500 C 216.301 184.861,218.342 185.000,223.286 185.000 C 228.408 185.000,230.175 184.874,230.300 184.500 C 230.392 184.225,230.722 184.000,231.033 184.000 C 231.345 184.000,231.600 183.840,231.600 183.645 C 231.600 183.449,232.220 183.173,232.977 183.031 C 233.850 182.867,234.446 182.484,234.604 181.986 C 234.742 181.554,234.995 181.200,235.169 181.200 C 235.662 181.200,237.600 179.287,237.600 178.800 C 237.600 178.559,238.025 177.965,238.544 177.481 C 239.064 176.996,239.616 176.195,239.771 175.700 C 239.927 175.205,240.222 174.800,240.427 174.800 C 240.632 174.800,240.800 174.530,240.800 174.200 C 240.800 173.870,240.977 173.600,241.192 173.600 C 241.408 173.600,241.698 173.150,241.836 172.600 C 241.974 172.050,242.247 171.600,242.443 171.600 C 242.640 171.600,242.800 171.330,242.800 171.000 C 242.800 170.670,242.977 170.400,243.192 170.400 C 243.408 170.400,243.698 169.950,243.836 169.400 C 243.974 168.850,244.247 168.400,244.443 168.400 C 244.640 168.400,244.800 168.040,244.800 167.600 C 244.800 167.160,244.980 166.800,245.200 166.800 C 245.420 166.800,245.600 166.552,245.600 166.249 C 245.600 165.946,245.852 165.489,246.161 165.233 C 246.469 164.977,246.835 164.315,246.974 163.763 C 247.112 163.210,248.480 161.548,250.013 160.069 C 251.546 158.590,252.800 157.159,252.800 156.890 C 252.800 156.620,253.050 156.400,253.357 156.400 C 253.663 156.400,254.023 155.962,254.158 155.427 C 254.292 154.891,254.761 154.339,255.200 154.200 C 255.639 154.061,256.108 153.509,256.242 152.973 C 256.377 152.438,256.647 152.000,256.843 152.000 C 257.040 152.000,257.200 151.730,257.200 151.400 C 257.200 151.070,257.380 150.800,257.600 150.800 C 257.820 150.800,258.000 150.512,258.000 150.160 C 258.000 149.809,258.245 148.954,258.544 148.260 C 259.782 145.389,259.965 144.757,260.228 142.433 C 260.379 141.095,260.660 140.000,260.852 140.000 C 261.311 140.000,261.305 130.512,260.845 130.228 C 260.650 130.107,260.372 129.377,260.227 128.604 C 260.082 127.832,259.792 127.200,259.582 127.200 C 259.372 127.200,259.200 126.930,259.200 126.600 C 259.200 126.270,259.043 126.000,258.850 126.000 C 258.657 126.000,258.387 125.436,258.249 124.746 C 258.111 124.057,257.684 123.199,257.299 122.841 C 256.591 122.180,255.817 121.076,255.325 120.022 C 254.921 119.158,247.674 112.000,247.202 112.000 C 246.978 112.000,246.411 111.559,245.942 111.020 C 245.474 110.481,244.575 109.926,243.945 109.788 C 243.315 109.650,242.800 109.371,242.800 109.168 C 242.800 108.966,242.530 108.800,242.200 108.800 C 241.870 108.800,241.600 108.632,241.600 108.427 C 241.600 108.222,241.195 107.937,240.700 107.795 C 239.639 107.490,237.290 106.520,236.305 105.981 C 235.441 105.507,228.000 105.473,228.000 105.943 M236.497 109.233 C 247.960 113.094,258.248 125.428,258.158 135.200 C 258.074 144.334,256.057 149.355,249.674 156.319 C 246.400 159.891,244.723 162.148,242.628 165.803 C 234.472 180.027,231.719 182.400,223.371 182.400 C 217.854 182.400,214.990 181.501,211.216 178.585 L 208.363 176.381 206.568 176.990 C 204.242 177.780,203.636 177.760,200.925 176.808 L 198.671 176.015 196.485 177.266 C 195.102 178.057,193.485 178.605,192.082 178.758 C 189.239 179.068,189.060 179.711,191.473 180.944 C 201.778 186.210,200.151 202.867,188.778 208.557 C 175.639 215.130,158.974 206.325,154.594 190.496 C 154.455 189.994,153.243 188.845,151.872 187.916 C 148.155 185.396,145.824 182.778,144.011 179.086 C 141.858 174.704,141.501 172.962,142.837 173.362 C 144.668 173.908,152.480 175.198,152.792 175.005 C 152.964 174.898,153.233 173.594,153.389 172.106 C 154.646 160.103,158.605 151.480,167.218 141.983 C 169.223 139.772,170.731 137.654,171.491 135.983 C 176.065 125.921,194.637 116.333,211.474 115.341 L 215.800 115.086 217.643 113.380 C 222.103 109.253,230.847 107.329,236.497 109.233 M189.423 139.300 C 188.925 140.941,188.920 141.529,189.406 141.342 C 189.857 141.169,190.378 139.986,190.395 139.100 C 190.404 138.597,189.585 138.766,189.423 139.300 M178.529 168.500 C 175.917 172.600,173.875 177.307,174.366 178.095 C 174.971 179.063,175.009 179.013,172.900 180.009 C 167.755 182.438,162.044 182.589,153.127 180.532 C 149.165 179.618,149.079 180.038,152.841 181.921 C 160.800 185.905,169.832 186.116,177.499 182.498 C 180.571 181.048,184.499 174.754,183.852 172.317 C 183.206 169.883,179.391 167.147,178.529 168.500 M140.800 211.148 C 140.800 211.339,140.157 211.600,139.370 211.727 C 137.683 212.001,135.600 212.869,135.600 213.298 C 135.600 213.464,135.343 213.600,135.029 213.600 C 134.714 213.600,134.211 213.846,133.910 214.147 C 133.609 214.448,132.975 214.817,132.502 214.968 C 132.028 215.118,131.533 215.583,131.400 216.000 C 131.267 216.417,130.817 216.867,130.400 217.000 C 129.983 217.133,129.533 217.583,129.400 218.000 C 129.267 218.417,128.808 218.870,128.380 219.006 C 127.951 219.143,127.600 219.409,127.600 219.598 C 127.600 219.788,127.375 220.188,127.100 220.488 C 126.370 221.285,125.611 222.499,125.342 223.300 C 125.212 223.685,124.950 224.000,124.758 224.000 C 124.566 224.000,124.294 224.720,124.154 225.600 C 124.013 226.480,123.741 227.200,123.549 227.200 C 123.357 227.200,123.200 227.614,123.200 228.120 C 123.200 228.626,122.975 229.265,122.700 229.540 C 121.995 230.245,122.005 243.668,122.711 243.904 C 122.980 243.993,123.200 244.502,123.200 245.033 C 123.200 245.565,123.357 246.000,123.549 246.000 C 123.741 246.000,124.013 246.720,124.154 247.600 C 124.294 248.480,124.587 249.200,124.805 249.200 C 125.022 249.200,125.200 249.560,125.200 250.000 C 125.200 250.440,125.335 250.805,125.500 250.811 C 125.665 250.817,126.241 251.537,126.780 252.411 C 127.320 253.285,127.905 254.000,128.080 254.000 C 128.256 254.000,128.400 254.204,128.400 254.453 C 128.400 254.910,129.246 255.740,131.335 257.334 C 131.959 257.810,132.711 258.425,133.006 258.700 C 133.301 258.975,133.736 259.200,133.971 259.200 C 134.207 259.200,134.400 259.366,134.400 259.568 C 134.400 259.771,134.940 260.055,135.600 260.200 C 136.260 260.345,136.800 260.618,136.800 260.807 C 136.800 260.996,137.655 261.277,138.700 261.431 C 139.745 261.585,140.705 261.873,140.833 262.070 C 141.132 262.533,152.865 262.534,153.170 262.072 C 153.297 261.880,154.218 261.614,155.218 261.480 C 156.218 261.347,157.568 260.960,158.218 260.621 C 158.868 260.282,159.625 260.004,159.900 260.002 C 160.175 260.001,160.400 259.820,160.400 259.600 C 160.400 259.380,160.670 259.200,161.000 259.200 C 161.330 259.200,161.600 259.041,161.600 258.847 C 161.600 257.530,163.167 258.221,163.408 259.645 C 163.552 260.500,163.834 261.200,164.035 261.200 C 164.236 261.200,164.400 261.470,164.400 261.800 C 164.400 262.261,164.911 262.400,166.600 262.400 L 168.800 262.400 168.800 253.000 C 168.800 247.000,168.945 243.600,169.200 243.600 C 169.420 243.600,169.600 243.227,169.600 242.771 C 169.600 241.423,170.578 240.800,172.691 240.800 C 175.085 240.800,175.600 240.326,175.600 238.120 L 175.600 236.400 164.800 236.400 L 154.000 236.400 154.000 238.600 L 154.000 240.800 156.500 240.813 C 158.946 240.825,160.400 241.396,160.400 242.344 C 160.400 242.595,160.580 242.800,160.800 242.800 C 161.043 242.800,161.200 244.600,161.200 247.400 C 161.200 250.200,161.043 252.000,160.800 252.000 C 160.580 252.000,160.400 252.263,160.400 252.584 C 160.400 253.751,155.441 257.200,153.763 257.200 C 153.453 257.200,153.200 257.380,153.200 257.600 C 153.200 257.840,151.600 258.000,149.200 258.000 C 146.800 258.000,145.200 257.840,145.200 257.600 C 145.200 257.380,144.851 257.200,144.424 257.200 C 143.997 257.200,143.545 257.034,143.419 256.831 C 143.294 256.628,142.653 256.343,141.995 256.199 C 141.338 256.055,140.800 255.771,140.800 255.568 C 140.800 255.366,140.618 255.200,140.397 255.200 C 140.004 255.200,137.926 253.520,137.040 252.486 C 136.798 252.203,136.375 251.721,136.100 251.415 C 135.825 251.108,135.600 250.664,135.600 250.429 C 135.600 250.193,135.423 250.000,135.208 250.000 C 134.992 250.000,134.702 249.550,134.564 249.000 C 134.426 248.450,134.167 248.000,133.988 248.000 C 133.810 248.000,133.545 247.460,133.400 246.800 C 133.255 246.140,132.971 245.600,132.768 245.600 C 132.566 245.600,132.400 245.165,132.400 244.633 C 132.400 244.102,132.175 243.592,131.900 243.500 C 131.526 243.375,131.400 241.591,131.400 236.400 C 131.400 231.209,131.526 229.425,131.900 229.300 C 132.175 229.208,132.400 228.709,132.400 228.190 C 132.400 227.672,132.566 227.145,132.769 227.019 C 132.972 226.894,133.257 226.253,133.401 225.595 C 133.545 224.938,133.829 224.400,134.032 224.400 C 134.234 224.400,134.400 224.169,134.400 223.887 C 134.400 222.946,138.769 218.000,139.600 218.000 C 139.820 218.000,140.000 217.823,140.000 217.608 C 140.000 217.392,140.450 217.102,141.000 216.964 C 141.550 216.826,142.000 216.553,142.000 216.357 C 142.000 216.160,142.450 216.000,143.000 216.000 C 143.550 216.000,144.000 215.820,144.000 215.600 C 144.000 215.360,145.600 215.200,148.000 215.200 C 150.200 215.200,152.000 215.338,152.000 215.506 C 152.000 215.756,154.854 217.200,155.350 217.200 C 155.681 217.200,160.000 221.631,160.000 221.971 C 160.000 222.176,160.225 222.581,160.500 222.871 C 161.130 223.538,163.600 228.496,163.600 229.095 C 163.600 229.747,164.765 229.880,166.700 229.446 L 168.400 229.065 168.400 227.133 C 168.400 226.070,168.220 225.200,168.000 225.200 C 167.780 225.200,167.600 224.570,167.600 223.800 C 167.600 223.030,167.438 222.400,167.239 222.400 C 167.041 222.400,166.750 221.275,166.594 219.900 C 166.437 218.525,166.194 217.220,166.054 217.000 C 165.915 216.780,165.620 215.520,165.400 214.200 L 165.000 211.800 162.700 211.680 C 161.020 211.592,160.398 211.700,160.394 212.080 C 160.384 212.940,159.634 213.845,159.300 213.400 C 158.765 212.686,157.271 212.021,155.609 211.755 C 154.714 211.612,153.886 211.339,153.768 211.147 C 153.487 210.693,140.800 210.693,140.800 211.148 M42.800 213.778 L 42.800 216.000 45.229 216.000 C 49.290 216.000,49.000 214.414,49.000 236.600 C 49.000 258.103,49.121 257.200,46.229 257.200 C 45.443 257.200,44.800 257.380,44.800 257.600 C 44.800 257.820,44.350 258.000,43.800 258.000 C 42.855 258.000,42.800 258.120,42.800 260.200 L 42.800 262.400 55.800 262.400 C 62.950 262.400,68.800 262.246,68.800 262.058 C 68.800 261.870,71.522 261.620,74.849 261.502 C 78.177 261.384,81.012 261.110,81.149 260.894 C 81.287 260.678,81.985 260.374,82.700 260.218 C 83.415 260.063,84.000 259.771,84.000 259.568 C 84.000 259.366,84.270 259.200,84.600 259.200 C 84.930 259.200,85.200 259.020,85.200 258.800 C 85.200 258.580,85.455 258.400,85.766 258.400 C 86.436 258.400,89.200 255.807,89.200 255.178 C 89.200 254.939,89.470 254.473,89.800 254.143 C 90.130 253.813,90.400 253.196,90.400 252.771 C 90.400 252.347,90.580 252.000,90.800 252.000 C 91.020 252.000,91.200 251.291,91.200 250.424 C 91.200 249.557,91.380 248.736,91.600 248.600 C 91.820 248.464,92.000 247.924,92.000 247.400 C 92.000 246.876,91.820 246.336,91.600 246.200 C 91.380 246.064,91.200 245.243,91.200 244.376 C 91.200 243.509,91.020 242.800,90.800 242.800 C 90.580 242.800,90.400 242.344,90.400 241.787 C 90.400 241.231,90.130 240.671,89.800 240.545 C 89.470 240.418,89.194 240.109,89.187 239.857 C 89.160 238.943,87.079 237.072,85.500 236.542 C 85.115 236.412,84.800 236.148,84.800 235.953 C 84.800 235.759,84.474 235.600,84.076 235.600 C 83.054 235.600,81.502 234.431,82.500 234.413 C 82.885 234.406,83.200 234.220,83.200 234.000 C 83.200 233.780,83.457 233.600,83.771 233.600 C 85.428 233.600,89.200 228.571,89.200 226.362 C 89.200 225.749,89.380 225.136,89.600 225.000 C 89.820 224.864,90.000 224.234,90.000 223.600 C 90.000 222.966,89.820 222.336,89.600 222.200 C 89.380 222.064,89.200 221.333,89.200 220.576 C 89.200 219.819,89.040 219.200,88.843 219.200 C 88.647 219.200,88.364 218.705,88.213 218.100 C 87.888 216.792,85.130 214.098,83.765 213.756 C 83.234 213.622,82.800 213.353,82.800 213.157 C 82.800 212.960,82.455 212.800,82.033 212.800 C 81.612 212.800,81.192 212.575,81.100 212.300 C 80.971 211.912,76.678 211.773,61.867 211.678 L 42.800 211.557 42.800 213.778 M96.400 213.800 L 96.400 216.000 98.711 216.000 C 102.649 216.000,102.400 214.597,102.400 236.833 C 102.400 258.244,102.542 257.200,99.629 257.200 C 98.733 257.200,98.000 257.380,98.000 257.600 C 98.000 257.820,97.640 258.000,97.200 258.000 C 96.497 258.000,96.400 258.267,96.400 260.207 L 96.400 262.414 106.500 262.307 L 116.600 262.200 116.721 260.100 C 116.826 258.279,116.743 258.000,116.101 258.000 C 115.693 258.000,115.189 257.832,114.980 257.627 C 114.771 257.421,113.880 257.196,113.000 257.127 C 111.794 257.031,111.303 256.778,111.005 256.100 C 110.788 255.605,110.473 255.200,110.305 255.200 C 109.832 255.200,109.926 218.893,110.400 218.600 C 110.620 218.464,110.800 218.034,110.800 217.644 C 110.800 216.679,112.202 216.038,114.600 215.908 L 116.600 215.800 116.721 213.700 L 116.842 211.600 106.621 211.600 L 96.400 211.600 96.400 213.800 M76.700 217.500 C 76.792 217.775,77.122 218.000,77.433 218.000 C 77.745 218.000,78.000 218.168,78.000 218.373 C 78.000 218.578,78.360 218.860,78.799 219.000 C 79.239 219.139,79.708 219.691,79.842 220.227 C 79.977 220.762,80.247 221.200,80.443 221.200 C 80.640 221.200,80.800 222.370,80.800 223.800 C 80.800 225.230,80.640 226.400,80.445 226.400 C 80.249 226.400,79.973 227.020,79.831 227.777 C 79.667 228.650,79.284 229.246,78.786 229.404 C 78.354 229.542,78.000 229.822,78.000 230.027 C 78.000 230.232,77.730 230.400,77.400 230.400 C 77.070 230.400,76.800 230.578,76.800 230.795 C 76.800 231.013,76.080 231.306,75.200 231.446 C 74.320 231.587,73.600 231.859,73.600 232.051 C 73.600 232.243,71.721 232.400,69.424 232.400 C 67.071 232.400,65.139 232.575,65.000 232.800 C 64.863 233.021,63.063 233.200,60.976 233.200 L 57.200 233.200 57.200 224.974 L 57.200 216.748 66.867 216.874 C 74.154 216.969,76.575 217.123,76.700 217.500 M188.600 226.800 C 188.464 227.020,188.016 227.200,187.605 227.200 C 187.194 227.200,186.587 227.470,186.257 227.800 C 185.927 228.130,185.545 228.400,185.407 228.400 C 185.269 228.400,184.640 228.895,184.009 229.500 C 180.391 232.970,180.175 238.264,183.528 241.319 C 183.818 241.584,184.428 242.196,184.883 242.680 C 185.338 243.164,186.225 243.674,186.855 243.812 C 187.485 243.950,188.000 244.229,188.000 244.432 C 188.000 244.634,188.249 244.800,188.554 244.800 C 188.859 244.800,189.624 245.069,190.254 245.398 C 190.884 245.726,191.805 245.996,192.300 245.998 C 192.795 245.999,193.200 246.180,193.200 246.400 C 193.200 246.620,193.605 246.801,194.100 246.802 C 194.595 246.804,195.516 247.074,196.146 247.402 C 196.776 247.731,197.541 248.000,197.846 248.000 C 198.151 248.000,198.400 248.157,198.400 248.349 C 198.400 248.541,199.120 248.813,200.000 248.954 C 200.880 249.094,201.600 249.387,201.600 249.605 C 201.600 249.822,201.870 250.000,202.200 250.000 C 202.530 250.000,202.800 250.168,202.800 250.373 C 202.800 250.578,203.142 250.855,203.560 250.987 C 205.435 251.583,205.024 255.482,202.969 256.588 C 202.216 256.994,201.600 257.478,201.600 257.663 C 201.600 257.848,200.160 258.000,198.400 258.000 C 196.533 258.000,195.200 257.833,195.200 257.600 C 195.200 257.380,194.750 257.200,194.200 257.200 C 193.650 257.200,193.200 257.020,193.200 256.800 C 193.200 256.580,192.958 256.400,192.662 256.400 C 192.366 256.400,191.601 255.949,190.962 255.398 C 190.323 254.846,189.530 254.306,189.200 254.198 C 188.870 254.090,188.190 253.281,187.688 252.400 C 187.186 251.520,186.601 250.800,186.388 250.800 C 186.175 250.800,185.994 250.575,185.987 250.300 C 185.944 248.704,181.600 246.823,181.600 248.400 C 181.600 248.620,181.240 248.800,180.800 248.800 C 180.178 248.800,180.000 249.067,180.000 250.000 C 180.000 250.660,180.156 251.200,180.348 251.200 C 180.539 251.200,180.794 251.808,180.915 252.551 C 181.035 253.294,181.514 254.688,181.978 255.648 C 182.442 256.609,182.930 258.071,183.062 258.898 C 183.194 259.724,183.447 260.400,183.623 260.400 C 183.800 260.400,184.002 260.805,184.072 261.300 C 184.280 262.763,187.867 262.868,188.230 261.421 C 188.475 260.447,190.000 259.895,190.000 260.782 C 190.000 260.992,190.675 261.288,191.500 261.440 C 192.325 261.591,193.105 261.877,193.234 262.074 C 193.538 262.540,203.264 262.537,203.568 262.071 C 203.696 261.875,204.475 261.591,205.300 261.440 C 206.125 261.288,206.800 260.992,206.800 260.782 C 206.800 260.572,207.027 260.400,207.304 260.400 C 208.148 260.400,210.162 258.248,211.200 256.237 C 211.970 254.745,212.049 248.349,211.300 248.100 C 211.025 248.008,210.800 247.754,210.800 247.535 C 210.800 246.838,207.702 244.041,206.631 243.772 C 206.064 243.630,205.600 243.397,205.600 243.254 C 205.600 242.929,203.779 242.132,202.200 241.767 C 201.540 241.615,200.820 241.367,200.600 241.218 C 200.380 241.069,199.120 240.606,197.800 240.191 C 196.480 239.776,195.229 239.293,195.020 239.118 C 194.811 238.943,194.388 238.800,194.080 238.800 C 190.455 238.800,187.384 234.580,189.482 232.482 C 190.709 231.255,197.926 230.779,198.300 231.900 C 198.392 232.175,198.697 232.400,198.978 232.400 C 199.784 232.400,204.358 237.094,204.638 238.208 C 205.008 239.683,208.800 240.547,208.800 239.156 C 208.800 238.960,209.093 238.800,209.451 238.800 C 210.167 238.800,209.951 235.792,209.180 235.020 C 208.971 234.811,208.800 234.136,208.800 233.520 C 208.800 232.904,208.637 232.400,208.438 232.400 C 208.238 232.400,207.947 231.466,207.789 230.323 C 207.369 227.268,204.213 225.817,202.519 227.900 C 202.116 228.395,201.890 228.458,201.746 228.113 C 201.634 227.845,200.925 227.510,200.171 227.368 C 199.417 227.227,198.800 226.951,198.800 226.755 C 198.800 226.258,188.908 226.302,188.600 226.800 M286.000 226.749 C 286.000 226.941,285.280 227.213,284.400 227.354 C 283.520 227.494,282.800 227.787,282.800 228.005 C 282.800 228.222,282.440 228.400,282.000 228.400 C 281.560 228.400,281.200 228.580,281.200 228.800 C 281.200 229.020,281.002 229.200,280.760 229.200 C 280.082 229.200,277.600 231.839,277.600 232.560 C 277.600 232.912,277.420 233.200,277.200 233.200 C 276.980 233.200,276.800 233.704,276.800 234.320 C 276.800 234.936,276.580 235.660,276.310 235.930 C 275.923 236.317,275.923 236.585,276.310 237.205 C 276.580 237.636,276.800 238.339,276.800 238.768 C 276.800 239.729,277.965 240.138,280.550 240.084 C 282.671 240.039,284.000 239.098,284.000 237.640 C 284.000 237.204,284.156 236.751,284.346 236.633 C 284.536 236.516,284.798 235.769,284.927 234.973 C 285.626 230.665,295.990 229.463,298.179 233.436 C 298.411 233.856,298.708 234.290,298.841 234.400 C 298.973 234.510,299.184 235.995,299.310 237.700 L 299.538 240.800 296.769 240.800 C 295.246 240.800,294.000 240.946,294.000 241.125 C 294.000 241.304,292.335 241.654,290.300 241.902 C 285.208 242.524,283.600 242.835,283.600 243.198 C 283.600 243.369,282.790 243.631,281.800 243.779 C 280.810 243.928,280.000 244.218,280.000 244.425 C 280.000 244.631,279.730 244.800,279.400 244.800 C 279.070 244.800,278.800 244.968,278.800 245.173 C 278.800 245.378,278.405 245.671,277.922 245.825 C 276.939 246.137,275.634 247.536,275.613 248.300 C 275.606 248.575,275.456 248.800,275.280 248.800 C 274.107 248.800,273.595 254.665,274.593 256.666 C 275.508 258.499,278.118 261.043,279.421 261.369 C 280.065 261.531,280.699 261.837,280.830 262.048 C 281.157 262.578,290.952 262.545,291.129 262.013 C 291.205 261.786,291.635 261.600,292.084 261.600 C 292.983 261.600,297.887 259.318,298.729 258.508 C 299.432 257.832,300.400 257.861,300.400 258.558 C 300.400 259.429,302.631 261.600,303.527 261.600 C 303.971 261.600,304.396 261.788,304.473 262.018 C 304.559 262.276,306.337 262.435,309.121 262.432 C 314.297 262.427,314.800 262.179,314.800 259.629 L 314.800 258.000 311.408 258.000 C 308.123 258.000,308.007 257.968,307.764 257.000 C 307.626 256.450,307.353 256.000,307.157 256.000 C 306.957 256.000,306.796 251.375,306.790 245.500 C 306.781 234.996,306.522 232.181,305.497 231.411 C 305.196 231.185,304.831 230.681,304.684 230.291 C 304.538 229.901,304.113 229.465,303.740 229.321 C 303.366 229.178,302.737 228.737,302.341 228.341 C 301.945 227.945,301.121 227.515,300.510 227.386 C 299.900 227.257,299.087 226.983,298.705 226.776 C 297.830 226.302,286.000 226.277,286.000 226.749 M324.333 226.700 C 323.960 227.541,319.670 229.212,317.900 229.206 L 316.000 229.200 316.000 231.800 L 316.000 234.400 319.000 234.400 L 322.000 234.400 322.000 253.357 C 322.000 274.331,322.205 272.800,319.391 272.800 C 318.652 272.800,317.936 272.980,317.800 273.200 C 317.664 273.420,317.203 273.600,316.776 273.600 C 316.111 273.600,316.000 273.887,316.000 275.600 L 316.000 277.600 325.820 277.600 L 335.640 277.600 335.520 275.300 L 335.400 273.000 332.732 272.800 C 329.248 272.539,329.419 272.898,329.272 265.543 L 329.144 259.151 330.347 259.772 C 331.008 260.114,331.653 260.562,331.779 260.766 C 331.906 260.971,332.592 261.263,333.305 261.415 C 334.017 261.568,334.815 261.865,335.078 262.077 C 335.341 262.288,337.646 262.462,340.200 262.462 C 342.754 262.462,345.059 262.288,345.322 262.077 C 345.585 261.865,346.405 261.563,347.144 261.405 C 347.883 261.247,348.849 260.821,349.291 260.459 C 351.856 258.354,353.200 257.005,353.200 256.534 C 353.200 256.240,353.368 256.000,353.573 256.000 C 353.778 256.000,354.072 255.595,354.227 255.100 C 354.381 254.605,354.619 254.110,354.754 254.000 C 355.419 253.460,356.068 251.742,356.278 249.969 C 356.406 248.886,356.666 248.000,356.856 248.000 C 357.045 248.000,357.200 246.110,357.200 243.800 C 357.200 241.490,357.045 239.600,356.856 239.600 C 356.666 239.600,356.406 238.745,356.277 237.700 C 356.033 235.723,355.219 233.609,354.700 233.603 C 354.535 233.601,354.400 233.335,354.400 233.012 C 354.400 232.384,350.517 228.400,349.906 228.400 C 349.706 228.400,349.273 228.130,348.943 227.800 C 348.613 227.470,347.996 227.200,347.571 227.200 C 347.147 227.200,346.800 227.020,346.800 226.800 C 346.800 226.306,337.889 226.253,336.895 226.741 C 336.513 226.929,335.525 227.407,334.700 227.804 C 333.875 228.201,333.200 228.678,333.200 228.863 C 333.200 229.048,332.834 229.200,332.387 229.200 C 331.941 229.200,331.471 229.470,331.345 229.800 C 331.218 230.130,330.864 230.400,330.557 230.400 C 330.251 230.400,330.000 230.580,330.000 230.800 C 330.000 231.020,329.820 231.200,329.600 231.200 C 329.378 231.200,329.200 230.133,329.200 228.800 L 329.200 226.400 326.833 226.400 C 325.532 226.400,324.407 226.535,324.333 226.700 M214.000 228.920 C 214.000 230.872,214.526 231.600,215.937 231.600 C 217.107 231.600,219.200 233.650,219.200 234.796 C 219.200 235.238,219.343 235.600,219.517 235.600 C 219.692 235.600,220.171 236.590,220.582 237.800 C 220.993 239.010,221.481 240.000,221.665 240.000 C 221.849 240.000,222.001 240.405,222.002 240.900 C 222.003 241.395,222.439 242.659,222.972 243.709 C 223.505 244.759,224.058 246.152,224.201 246.804 C 224.344 247.457,224.628 248.094,224.831 248.219 C 225.034 248.345,225.200 248.797,225.200 249.224 C 225.200 249.651,225.364 250.000,225.565 250.000 C 225.766 250.000,226.051 250.720,226.200 251.600 C 226.349 252.480,226.626 253.200,226.817 253.200 C 227.008 253.200,227.282 253.832,227.427 254.604 C 227.572 255.377,227.850 256.107,228.045 256.228 C 228.240 256.349,228.400 256.797,228.400 257.224 C 228.400 257.651,228.564 258.000,228.765 258.000 C 228.966 258.000,229.251 258.720,229.400 259.600 C 229.549 260.480,229.834 261.200,230.035 261.200 C 230.236 261.200,230.400 261.470,230.400 261.800 C 230.400 262.267,230.937 262.400,232.829 262.400 C 235.618 262.400,236.334 261.917,236.677 259.804 C 236.802 259.032,237.026 258.400,237.173 258.400 C 237.321 258.400,237.774 257.455,238.180 256.300 C 238.586 255.145,239.056 254.020,239.223 253.800 C 239.391 253.580,239.655 252.725,239.809 251.900 C 239.963 251.075,240.249 250.400,240.445 250.400 C 240.640 250.400,240.800 250.040,240.800 249.600 C 240.800 249.160,240.960 248.800,241.155 248.800 C 241.351 248.800,241.626 248.188,241.766 247.440 C 241.906 246.692,242.323 245.477,242.693 244.740 L 243.365 243.400 243.740 244.700 C 243.947 245.415,244.270 246.000,244.458 246.000 C 244.646 246.000,244.800 246.450,244.800 247.000 C 244.800 247.550,244.978 248.000,245.195 248.000 C 245.413 248.000,245.706 248.720,245.846 249.600 C 245.987 250.480,246.229 251.200,246.384 251.200 C 246.539 251.200,247.011 252.280,247.433 253.600 C 247.855 254.920,248.319 256.000,248.465 256.000 C 248.610 256.000,248.851 256.720,249.000 257.600 C 249.149 258.480,249.434 259.200,249.635 259.200 C 249.836 259.200,250.000 259.434,250.000 259.720 C 250.000 261.699,250.935 262.394,253.600 262.394 C 256.265 262.394,257.200 261.699,257.200 259.720 C 257.200 259.434,257.364 259.200,257.565 259.200 C 257.766 259.200,258.051 258.480,258.200 257.600 C 258.349 256.720,258.634 256.000,258.835 256.000 C 259.036 256.000,259.200 255.651,259.200 255.224 C 259.200 254.797,259.380 254.336,259.600 254.200 C 259.820 254.064,260.001 253.648,260.002 253.276 C 260.004 252.904,260.257 252.117,260.565 251.527 C 260.873 250.937,261.245 249.904,261.393 249.232 C 261.541 248.559,261.828 247.906,262.031 247.781 C 262.234 247.655,262.400 247.203,262.400 246.776 C 262.400 246.349,262.557 246.000,262.749 246.000 C 262.941 246.000,263.213 245.280,263.354 244.400 C 263.494 243.520,263.787 242.800,264.005 242.800 C 264.222 242.800,264.400 242.350,264.400 241.800 C 264.400 241.250,264.578 240.800,264.795 240.800 C 265.013 240.800,265.306 240.080,265.446 239.200 C 265.587 238.320,265.851 237.600,266.033 237.600 C 266.215 237.600,266.482 236.970,266.626 236.200 C 266.771 235.430,267.005 234.800,267.147 234.800 C 267.289 234.800,267.644 234.260,267.936 233.600 C 268.228 232.940,268.722 232.400,269.034 232.400 C 269.345 232.400,269.600 232.231,269.600 232.025 C 269.600 231.819,270.185 231.594,270.900 231.525 C 272.168 231.403,272.203 231.348,272.321 229.300 L 272.442 227.200 264.821 227.200 L 257.200 227.200 257.200 229.400 L 257.200 231.600 259.229 231.600 C 261.269 231.600,263.048 232.552,262.102 233.137 C 261.866 233.283,261.547 234.078,261.391 234.905 C 261.236 235.732,260.960 236.501,260.778 236.614 C 260.595 236.726,260.325 237.624,260.178 238.609 C 260.030 239.594,259.750 240.400,259.555 240.400 C 259.360 240.400,259.200 240.760,259.200 241.200 C 259.200 241.640,259.031 242.000,258.825 242.000 C 258.618 242.000,258.328 242.810,258.179 243.800 C 258.031 244.790,257.750 245.600,257.555 245.600 C 257.360 245.600,257.200 245.949,257.200 246.376 C 257.200 246.803,257.036 247.254,256.835 247.378 C 256.634 247.503,256.348 248.323,256.200 249.202 C 256.051 250.081,255.766 250.800,255.565 250.800 C 255.364 250.800,255.200 251.070,255.200 251.400 C 255.200 252.666,254.457 251.924,254.200 250.400 C 254.051 249.520,253.789 248.800,253.616 248.800 C 253.443 248.800,253.187 248.080,253.046 247.200 C 252.906 246.320,252.613 245.600,252.395 245.600 C 252.178 245.600,252.000 245.150,252.000 244.600 C 252.000 244.050,251.843 243.600,251.651 243.600 C 251.459 243.600,251.187 242.880,251.046 242.000 C 250.906 241.120,250.613 240.400,250.395 240.400 C 250.178 240.400,250.000 239.950,250.000 239.400 C 250.000 238.850,249.836 238.400,249.635 238.400 C 249.434 238.400,249.149 237.681,249.000 236.802 C 248.852 235.923,248.566 235.103,248.365 234.978 C 248.164 234.854,248.000 234.418,248.000 234.010 C 248.000 233.601,247.777 233.192,247.504 233.101 C 246.299 232.700,248.368 231.600,250.329 231.600 C 252.554 231.600,252.800 231.318,252.800 228.767 L 252.800 227.200 243.779 227.200 L 234.758 227.200 234.879 229.300 C 234.994 231.289,235.062 231.407,236.163 231.533 C 238.716 231.824,241.397 236.134,240.259 238.117 C 239.896 238.748,239.600 239.610,239.600 240.032 C 239.600 240.455,239.422 240.800,239.205 240.800 C 238.987 240.800,238.694 241.520,238.554 242.400 C 238.413 243.280,238.141 244.000,237.949 244.000 C 237.757 244.000,237.600 244.360,237.600 244.800 C 237.600 245.240,237.436 245.600,237.235 245.600 C 237.034 245.600,236.749 246.320,236.600 247.200 C 236.451 248.080,236.166 248.800,235.965 248.800 C 235.764 248.800,235.600 249.250,235.600 249.800 C 235.600 250.350,235.420 250.800,235.200 250.800 C 234.980 250.800,234.800 251.083,234.800 251.429 C 234.800 252.376,233.790 251.255,233.505 249.993 C 233.213 248.696,232.267 246.255,231.958 246.000 C 231.824 245.890,231.591 245.125,231.440 244.300 C 231.288 243.475,230.992 242.800,230.782 242.800 C 230.572 242.800,230.400 242.350,230.400 241.800 C 230.400 241.250,230.243 240.800,230.051 240.800 C 229.859 240.800,229.587 240.080,229.446 239.200 C 229.306 238.320,229.013 237.600,228.795 237.600 C 228.578 237.600,228.400 237.165,228.400 236.633 C 228.400 236.102,228.228 235.607,228.017 235.533 C 227.806 235.460,227.581 234.590,227.517 233.600 L 227.400 231.800 229.500 231.679 L 231.600 231.558 231.600 229.379 L 231.600 227.200 222.800 227.200 L 214.000 227.200 214.000 228.920 M343.514 233.094 C 345.211 234.178,346.534 235.667,347.344 237.405 C 347.754 238.282,348.249 239.313,348.444 239.695 C 348.906 240.595,348.907 248.600,348.447 249.505 C 348.252 249.887,347.853 250.740,347.559 251.400 C 346.814 253.071,343.943 255.899,342.664 256.220 C 342.079 256.367,341.600 256.647,341.600 256.843 C 341.600 257.459,336.324 257.237,334.513 256.546 C 333.571 256.186,332.800 255.736,332.800 255.546 C 332.800 255.356,332.530 255.200,332.200 255.200 C 331.870 255.200,331.600 255.046,331.600 254.858 C 331.600 254.671,331.112 253.996,330.516 253.358 L 329.433 252.200 329.269 244.506 C 329.115 237.276,329.151 236.794,329.853 236.533 C 330.264 236.381,330.891 235.928,331.247 235.528 C 331.603 235.127,332.053 234.794,332.247 234.786 C 332.441 234.779,333.320 234.425,334.200 234.000 C 335.080 233.575,336.025 233.221,336.300 233.214 C 336.575 233.206,336.800 233.020,336.800 232.800 C 336.800 232.080,342.305 232.321,343.514 233.094 M76.696 239.087 C 76.785 239.355,77.475 239.690,78.229 239.832 C 78.983 239.973,79.600 240.223,79.600 240.386 C 79.600 240.549,80.048 241.167,80.597 241.759 C 81.145 242.350,81.704 243.276,81.840 243.817 C 81.976 244.358,82.247 244.800,82.443 244.800 C 83.142 244.800,82.775 249.348,81.975 250.600 C 81.554 251.260,81.081 252.070,80.925 252.400 C 80.494 253.308,79.532 254.160,78.200 254.812 C 77.540 255.135,76.876 255.572,76.724 255.784 C 76.572 255.996,74.052 256.239,71.124 256.325 C 68.196 256.410,65.629 256.642,65.420 256.840 C 64.903 257.330,61.708 257.298,61.400 256.800 C 61.264 256.580,60.263 256.400,59.176 256.400 L 57.200 256.400 57.200 247.368 L 57.200 238.337 66.867 238.468 C 74.013 238.566,76.576 238.727,76.696 239.087 M299.200 249.192 C 299.200 252.691,299.174 252.791,298.200 253.036 C 297.650 253.174,297.200 253.418,297.200 253.579 C 297.200 253.740,296.482 254.215,295.605 254.636 C 294.727 255.056,294.007 255.519,294.005 255.665 C 294.002 255.811,293.281 256.051,292.402 256.200 C 291.523 256.348,290.703 256.634,290.578 256.835 C 289.761 258.158,283.498 256.729,282.972 255.100 C 282.848 254.715,282.578 254.400,282.373 254.400 C 282.168 254.400,282.000 253.680,282.000 252.800 C 282.000 251.920,282.160 251.200,282.357 251.200 C 282.553 251.200,282.821 250.770,282.953 250.244 C 283.099 249.665,283.588 249.189,284.197 249.037 C 284.748 248.898,285.200 248.608,285.200 248.392 C 285.200 248.177,285.549 248.000,285.976 248.000 C 286.403 248.000,286.856 247.833,286.983 247.628 C 287.109 247.423,288.245 247.131,289.506 246.979 C 290.768 246.826,291.985 246.555,292.210 246.376 C 292.582 246.082,294.263 245.874,297.900 245.672 L 299.200 245.600 299.200 249.192 " stroke="none" fill="#ffffff" fill-rule="evenodd"></path><path id="path2" d="M225.357 110.741 C 222.072 111.569,219.578 112.931,217.622 114.966 C 216.323 116.317,216.095 116.400,213.698 116.400 C 198.283 116.400,177.379 126.358,172.814 135.875 C 172.306 136.934,171.691 138.187,171.446 138.661 C 171.200 139.134,169.507 141.204,167.683 143.261 C 164.687 146.638,162.954 148.996,159.934 153.800 C 157.133 158.257,155.000 166.280,154.297 175.000 L 154.200 176.200 151.000 176.083 C 149.240 176.019,146.839 175.717,145.664 175.412 L 143.528 174.857 143.791 175.929 C 144.668 179.485,149.230 184.988,153.249 187.336 C 154.912 188.308,155.187 188.686,155.994 191.108 C 160.895 205.822,175.523 213.323,188.055 207.547 C 199.575 202.237,200.317 183.641,189.100 181.327 C 186.703 180.832,188.805 177.063,191.259 177.456 C 192.590 177.669,193.306 177.470,195.765 176.205 L 198.689 174.701 200.959 175.550 C 203.745 176.593,204.524 176.598,206.742 175.592 L 208.484 174.801 210.907 176.826 C 215.243 180.449,218.513 181.450,224.910 181.114 C 231.676 180.759,235.003 177.541,242.015 164.573 C 243.560 161.715,245.202 159.531,248.630 155.776 C 253.318 150.640,253.974 149.704,254.966 146.731 C 259.041 134.530,257.345 127.208,248.411 118.427 C 240.779 110.926,233.824 108.607,225.357 110.741 M235.848 114.794 C 241.656 117.313,247.747 123.177,251.346 129.714 C 253.048 132.806,252.838 136.895,250.551 145.200 C 249.798 147.934,248.441 147.730,248.387 144.874 C 248.380 144.503,248.130 143.877,247.830 143.483 C 247.363 142.866,247.316 143.239,247.497 146.146 L 247.708 149.527 244.858 152.539 C 242.577 154.948,241.907 155.451,241.504 155.053 C 239.028 152.609,236.178 151.694,237.911 153.900 C 240.736 157.496,240.468 158.457,233.727 168.890 L 231.847 171.800 231.500 170.100 C 231.048 167.887,230.589 167.949,230.022 170.300 C 229.167 173.842,227.619 176.122,225.800 176.518 C 221.161 177.528,214.859 175.950,212.081 173.083 L 210.771 171.732 211.985 169.166 C 213.393 166.190,213.731 157.662,212.617 153.200 L 212.068 151.000 212.034 153.058 C 211.851 164.147,210.139 168.476,204.877 171.161 L 203.275 171.978 200.338 170.973 L 197.400 169.969 194.280 171.596 C 190.910 173.354,189.724 173.378,191.304 171.656 C 191.837 171.075,192.666 169.940,193.148 169.134 C 193.629 168.328,194.918 166.986,196.011 166.152 C 197.105 165.318,198.000 164.583,198.000 164.518 C 198.000 164.028,196.525 164.661,194.362 166.080 C 192.953 167.003,191.575 167.716,191.300 167.662 C 191.020 167.608,190.800 167.959,190.800 168.461 C 190.800 169.308,189.005 171.600,188.341 171.600 C 188.171 171.600,187.192 170.702,186.166 169.605 C 184.550 167.877,181.964 166.269,179.486 165.450 C 178.256 165.044,179.680 162.800,181.168 162.800 C 182.092 162.800,182.315 162.625,182.312 161.900 C 182.310 161.405,182.608 160.207,182.974 159.237 C 184.105 156.240,183.576 155.515,182.200 158.177 C 181.540 159.454,180.637 160.666,180.193 160.871 C 178.949 161.445,177.505 163.839,177.397 165.502 C 177.334 166.463,176.632 168.082,175.439 170.017 C 174.416 171.676,173.148 174.106,172.622 175.417 C 171.220 178.909,168.385 179.852,161.000 179.279 L 157.400 179.000 157.287 176.200 C 157.224 174.660,157.320 172.410,157.499 171.200 L 157.826 169.000 160.968 169.077 C 164.664 169.167,164.254 168.267,160.335 167.688 C 157.757 167.306,157.738 167.102,159.724 161.209 C 161.383 156.288,161.957 156.034,167.400 157.806 C 168.089 158.031,168.065 157.948,167.231 157.213 C 166.698 156.744,165.483 156.152,164.531 155.897 C 163.579 155.642,162.800 155.231,162.800 154.982 C 162.800 154.060,167.175 148.353,172.080 142.878 C 173.141 141.694,174.165 140.072,174.398 139.207 C 176.548 131.225,194.468 121.691,209.495 120.536 C 213.361 120.239,213.273 120.016,211.048 124.500 C 208.890 128.847,209.116 128.864,212.751 124.630 C 217.057 119.614,221.223 115.809,223.244 115.046 C 227.136 113.578,232.783 113.465,235.848 114.794 M228.048 126.072 C 225.829 126.457,224.981 127.026,223.019 129.449 C 221.533 131.283,216.346 136.172,214.616 137.370 C 213.853 137.898,213.872 137.990,215.367 140.856 L 216.902 143.800 216.670 141.982 C 216.542 140.982,216.323 139.865,216.183 139.500 C 215.835 138.593,219.475 136.290,223.069 135.143 C 226.853 133.935,227.192 133.439,224.019 133.751 L 221.439 134.005 222.658 132.702 C 223.328 131.986,224.369 130.734,224.970 129.921 C 227.331 126.726,231.853 126.727,236.564 129.924 C 239.586 131.974,240.177 131.679,237.530 129.442 C 233.808 126.295,231.495 125.473,228.048 126.072 M190.846 136.024 C 190.321 136.239,188.805 137.420,187.478 138.649 C 185.321 140.646,184.924 140.860,183.733 140.667 C 182.003 140.386,182.046 140.889,183.870 142.280 C 185.160 143.263,185.687 143.400,188.170 143.400 C 191.105 143.399,193.667 142.418,192.201 141.856 C 191.706 141.666,191.658 141.439,191.983 140.832 C 192.212 140.403,192.400 139.388,192.400 138.576 C 192.400 137.149,192.440 137.108,193.600 137.340 C 194.848 137.590,195.164 137.200,194.298 136.481 C 193.495 135.815,191.879 135.601,190.846 136.024 M190.720 138.080 C 192.655 140.015,188.833 143.882,186.599 142.249 C 185.609 141.525,186.735 140.185,188.046 140.528 C 188.654 140.687,188.804 140.588,188.634 140.143 C 188.176 138.951,189.893 137.253,190.720 138.080 M179.213 147.050 C 178.007 148.065,176.159 151.092,176.522 151.456 C 176.676 151.610,177.315 150.822,180.349 146.739 C 181.122 145.698,180.674 145.821,179.213 147.050 M181.513 168.160 C 183.674 169.260,186.401 171.831,186.398 172.767 C 186.396 173.482,183.890 178.547,182.296 181.057 C 177.703 188.290,161.353 188.700,151.043 181.840 C 146.849 179.050,146.286 177.755,149.787 178.951 C 158.417 181.899,172.876 181.665,173.041 178.574 C 173.143 176.685,178.182 167.200,179.085 167.200 C 179.383 167.200,180.476 167.632,181.513 168.160 M188.785 185.792 C 195.154 189.086,193.024 200.269,185.384 203.648 C 181.431 205.397,174.545 205.640,174.128 204.046 C 173.995 203.537,173.620 203.405,172.632 203.520 C 171.091 203.700,168.777 202.640,165.700 200.342 C 163.303 198.552,163.170 198.177,164.690 197.491 C 165.758 197.010,165.741 196.996,163.812 196.800 C 161.556 196.571,159.828 194.346,158.578 190.057 C 157.803 187.401,157.745 187.448,160.840 188.245 C 162.814 188.753,164.381 188.849,167.687 188.662 L 171.975 188.420 172.415 190.057 C 172.969 192.113,175.865 195.270,178.261 196.430 C 184.301 199.353,191.360 193.357,187.171 188.861 C 186.189 187.807,185.505 188.083,185.836 189.402 C 186.253 191.061,185.650 191.276,184.076 190.030 C 183.264 189.387,182.168 188.802,181.641 188.730 C 179.225 188.402,179.530 186.000,181.987 186.000 C 182.874 186.000,183.600 185.820,183.600 185.600 C 183.600 184.983,187.499 185.127,188.785 185.792 " stroke="none" fill="#1a252d" fill-rule="evenodd"></path><path id="path3" d="M228.400 108.841 C 223.049 109.685,220.451 110.782,217.643 113.380 L 215.800 115.086 211.474 115.341 C 194.637 116.333,176.065 125.921,171.491 135.983 C 170.731 137.654,169.223 139.772,167.218 141.983 C 158.605 151.480,154.646 160.103,153.389 172.106 C 153.233 173.594,152.964 174.898,152.792 175.005 C 152.480 175.198,144.668 173.908,142.837 173.362 C 139.420 172.341,145.676 183.438,150.414 186.800 C 151.809 187.790,153.367 188.997,153.875 189.482 C 154.501 190.078,154.800 190.185,154.800 189.813 C 154.800 189.509,153.544 188.427,152.010 187.407 C 148.556 185.110,145.990 182.238,144.184 178.646 C 143.009 176.308,142.399 174.000,142.956 174.000 C 143.042 174.000,144.862 174.360,147.000 174.800 C 149.138 175.240,151.477 175.600,152.197 175.600 L 153.506 175.600 153.790 172.500 C 154.920 160.152,158.498 152.495,168.415 141.200 C 169.913 139.495,171.354 137.383,171.755 136.306 C 175.232 126.980,195.046 116.792,211.749 115.743 C 215.765 115.491,215.817 115.474,217.800 113.830 C 222.138 110.233,224.555 109.461,231.600 109.425 L 236.600 109.400 239.800 111.151 C 245.346 114.185,250.487 118.823,253.926 123.894 C 260.709 133.898,259.021 145.544,249.244 156.184 C 246.008 159.705,244.293 161.977,242.749 164.784 C 241.595 166.883,240.505 168.660,240.326 168.733 C 240.147 168.807,240.000 169.049,240.000 169.271 C 240.000 170.040,235.394 176.551,233.515 178.438 C 228.201 183.777,217.671 183.375,210.695 177.568 L 208.389 175.650 206.554 176.462 C 204.579 177.335,203.179 177.269,200.193 176.159 C 198.613 175.572,198.539 175.587,195.796 177.017 C 193.521 178.202,192.730 178.427,191.518 178.233 C 190.307 178.040,189.953 178.140,189.615 178.771 C 188.946 180.022,189.101 180.294,191.027 181.256 C 196.393 183.936,198.994 190.496,197.507 197.600 C 197.253 198.812,197.280 198.892,197.707 198.200 C 198.012 197.706,198.200 195.871,198.200 193.400 C 198.200 187.314,196.013 183.264,191.473 180.944 C 189.060 179.711,189.239 179.068,192.082 178.758 C 193.485 178.605,195.102 178.057,196.485 177.266 L 198.671 176.015 200.925 176.808 C 203.636 177.760,204.242 177.780,206.568 176.990 L 208.363 176.381 211.216 178.585 C 214.990 181.501,217.854 182.400,223.371 182.400 C 231.719 182.400,234.472 180.027,242.628 165.803 C 244.723 162.148,246.400 159.891,249.674 156.319 C 256.057 149.355,258.074 144.334,258.158 135.200 C 258.207 129.849,257.430 127.865,252.905 121.787 C 245.824 112.274,236.812 107.513,228.400 108.841 M188.288 141.255 C 187.906 141.468,187.415 141.533,187.197 141.398 C 186.979 141.263,186.800 141.343,186.800 141.576 C 186.800 142.098,189.064 142.143,189.383 141.628 C 189.739 141.052,189.062 140.821,188.288 141.255 M181.600 168.943 C 181.600 169.103,182.056 169.722,182.612 170.317 C 184.539 172.378,184.246 174.423,181.403 178.740 C 180.630 179.913,180.117 181.082,180.263 181.337 C 180.409 181.591,180.395 181.681,180.233 181.536 C 180.071 181.390,178.917 181.773,177.669 182.386 C 170.599 185.861,161.370 185.929,154.000 182.561 C 152.790 182.008,151.997 181.754,152.239 181.996 C 153.983 183.749,163.691 186.232,167.352 185.860 C 171.845 185.405,175.807 184.716,175.933 184.367 C 176.007 184.165,176.457 183.997,176.933 183.994 C 177.656 183.989,177.700 183.917,177.200 183.562 C 176.731 183.229,176.824 183.184,177.623 183.356 C 178.969 183.646,181.435 181.661,181.802 179.993 C 181.947 179.333,182.210 178.883,182.387 178.992 C 182.776 179.232,183.308 177.712,183.224 176.600 C 183.174 175.935,183.233 175.901,183.576 176.400 C 183.913 176.891,183.989 176.832,183.994 176.076 C 183.997 175.568,184.171 175.259,184.381 175.388 C 184.611 175.531,184.696 174.732,184.596 173.361 C 184.506 172.116,184.379 171.076,184.314 171.049 C 184.249 171.022,183.612 170.471,182.898 169.825 C 182.184 169.179,181.600 168.782,181.600 168.943 M184.800 173.024 C 184.800 173.604,184.973 173.940,185.200 173.800 C 185.420 173.664,185.600 173.203,185.600 172.776 C 185.600 172.349,185.420 172.000,185.200 172.000 C 184.980 172.000,184.800 172.461,184.800 173.024 M148.800 179.600 C 149.130 179.813,149.760 179.978,150.200 179.966 L 151.000 179.944 150.200 179.600 C 149.004 179.086,148.005 179.086,148.800 179.600 M153.800 180.800 C 154.240 180.989,154.870 181.144,155.200 181.144 C 155.578 181.144,155.504 181.017,155.000 180.800 C 154.560 180.611,153.930 180.456,153.600 180.456 C 153.222 180.456,153.296 180.583,153.800 180.800 M161.300 181.894 C 162.345 181.976,164.055 181.976,165.100 181.894 C 166.145 181.812,165.290 181.744,163.200 181.744 C 161.110 181.744,160.255 181.812,161.300 181.894 M154.811 191.074 C 154.758 193.406,159.333 200.918,162.668 203.974 C 173.535 213.931,190.631 212.507,196.419 201.163 C 197.561 198.924,197.360 198.711,196.093 200.820 C 186.676 216.502,164.053 212.234,155.951 193.247 C 155.330 191.791,154.817 190.813,154.811 191.074 " stroke="none" fill="#abb4ba" fill-rule="evenodd"></path><path id="path4" d="M230.100 109.494 C 231.145 109.576,232.855 109.576,233.900 109.494 C 234.945 109.412,234.090 109.344,232.000 109.344 C 229.910 109.344,229.055 109.412,230.100 109.494 M225.000 110.019 C 224.442 110.271,224.685 110.307,225.800 110.138 C 226.680 110.004,227.475 109.828,227.567 109.747 C 227.910 109.444,225.768 109.671,225.000 110.019 M236.033 109.748 C 236.375 110.052,240.000 111.548,240.000 111.386 C 240.000 111.121,236.890 109.600,236.349 109.600 C 236.084 109.600,235.942 109.667,236.033 109.748 M222.100 110.812 C 220.715 111.369,221.034 111.614,222.500 111.120 C 223.215 110.879,223.875 110.618,223.967 110.541 C 224.292 110.266,222.986 110.456,222.100 110.812 M218.100 113.580 C 215.832 115.475,215.611 115.567,212.965 115.702 L 210.200 115.843 213.039 115.922 C 215.425 115.988,216.031 115.866,216.839 115.156 C 217.367 114.692,218.507 113.702,219.372 112.956 C 220.237 112.210,220.837 111.600,220.707 111.600 C 220.577 111.600,219.404 112.491,218.100 113.580 M242.200 112.680 C 242.420 112.888,243.410 113.646,244.400 114.365 L 246.200 115.672 244.800 114.408 C 243.574 113.301,241.156 111.694,242.200 112.680 M248.600 118.000 C 249.906 119.320,251.065 120.400,251.175 120.400 C 251.285 120.400,250.306 119.320,249.000 118.000 C 247.694 116.680,246.535 115.600,246.425 115.600 C 246.315 115.600,247.294 116.680,248.600 118.000 M207.500 116.282 C 207.995 116.378,208.805 116.378,209.300 116.282 C 209.795 116.187,209.390 116.109,208.400 116.109 C 207.410 116.109,207.005 116.187,207.500 116.282 M201.600 117.200 C 200.808 117.454,200.767 117.520,201.400 117.520 C 201.840 117.520,202.650 117.376,203.200 117.200 C 203.992 116.946,204.033 116.880,203.400 116.880 C 202.960 116.880,202.150 117.024,201.600 117.200 M197.000 118.400 C 196.496 118.617,196.422 118.744,196.800 118.744 C 197.130 118.744,197.760 118.589,198.200 118.400 C 198.704 118.183,198.778 118.056,198.400 118.056 C 198.070 118.056,197.440 118.211,197.000 118.400 M194.200 119.414 C 193.200 119.896,193.166 119.951,194.000 119.748 C 195.133 119.471,196.407 118.821,195.800 118.830 C 195.580 118.833,194.860 119.096,194.200 119.414 M187.200 122.411 C 185.550 123.284,183.660 124.463,183.000 125.032 L 181.800 126.066 183.196 125.133 C 183.964 124.620,186.034 123.440,187.796 122.512 C 189.558 121.583,190.820 120.824,190.600 120.824 C 190.380 120.825,188.850 121.539,187.200 122.411 M253.805 124.165 C 254.189 124.806,254.859 125.931,255.292 126.665 C 255.725 127.399,256.163 128.000,256.265 128.000 C 256.544 128.000,254.879 125.143,253.933 124.000 L 253.105 123.000 253.805 124.165 M176.600 130.314 C 175.280 131.571,173.750 133.140,173.200 133.800 C 172.650 134.460,173.775 133.474,175.700 131.609 C 178.884 128.523,179.405 127.972,179.100 128.014 C 179.045 128.021,177.920 129.056,176.600 130.314 M256.414 128.454 C 256.406 128.594,256.663 129.314,256.984 130.054 C 257.306 130.794,257.569 131.130,257.570 130.800 C 257.572 130.224,256.443 127.934,256.414 128.454 M257.737 134.600 C 257.739 136.360,257.809 137.030,257.893 136.089 C 257.978 135.149,257.977 133.709,257.891 132.889 C 257.805 132.070,257.736 132.840,257.737 134.600 M171.644 136.444 C 171.398 137.151,171.266 137.800,171.352 137.885 C 171.438 137.971,171.709 137.462,171.956 136.756 C 172.202 136.049,172.334 135.400,172.248 135.315 C 172.162 135.229,171.891 135.738,171.644 136.444 M189.860 138.270 C 190.112 138.451,190.411 139.050,190.523 139.600 C 190.699 140.461,190.718 140.438,190.663 139.431 C 190.628 138.771,190.338 138.191,190.000 138.100 C 189.599 137.993,189.552 138.049,189.860 138.270 M168.172 141.500 C 165.280 144.788,163.787 146.713,165.800 144.556 C 168.147 142.042,171.276 138.400,171.089 138.400 C 170.984 138.400,169.671 139.795,168.172 141.500 M255.680 145.880 C 255.088 147.809,255.375 148.095,256.000 146.200 C 256.264 145.401,256.402 144.669,256.307 144.574 C 256.212 144.478,255.930 145.066,255.680 145.880 M163.544 147.100 C 162.393 148.489,161.906 149.200,162.104 149.200 C 162.214 149.200,162.786 148.570,163.373 147.800 C 164.463 146.371,164.595 145.832,163.544 147.100 M254.000 150.003 C 254.000 150.225,252.515 152.044,250.700 154.045 C 248.885 156.046,246.799 158.429,246.064 159.341 L 244.728 161.000 246.264 159.349 C 253.128 151.971,255.059 149.600,254.200 149.600 C 254.090 149.600,254.000 149.782,254.000 150.003 M157.265 157.417 C 156.595 158.888,156.723 159.202,157.447 157.865 C 157.786 157.240,157.988 156.654,157.896 156.563 C 157.805 156.471,157.521 156.856,157.265 157.417 M155.400 162.800 C 155.248 163.491,155.207 164.141,155.309 164.242 C 155.411 164.344,155.609 163.853,155.750 163.150 C 156.083 161.483,155.760 161.160,155.400 162.800 M240.853 167.400 C 240.399 168.170,240.168 168.800,240.339 168.800 C 240.511 168.800,240.952 168.170,241.319 167.400 C 241.687 166.630,241.918 166.000,241.833 166.000 C 241.748 166.000,241.307 166.630,240.853 167.400 M154.093 170.000 C 154.093 170.770,154.175 171.085,154.276 170.700 C 154.376 170.315,154.376 169.685,154.276 169.300 C 154.175 168.915,154.093 169.230,154.093 170.000 M183.305 170.174 C 184.133 170.991,184.700 171.838,184.565 172.056 C 184.431 172.274,184.443 173.103,184.592 173.898 C 184.793 174.971,184.957 175.197,185.226 174.772 C 185.709 174.008,185.696 173.494,185.200 173.800 C 184.973 173.940,184.800 173.604,184.800 173.024 C 184.800 171.890,185.581 171.586,185.632 172.700 C 185.651 173.140,185.740 173.209,185.869 172.887 C 186.128 172.243,185.523 171.508,183.438 169.929 L 181.800 168.688 183.305 170.174 M238.964 170.529 C 238.509 171.228,237.815 172.295,237.422 172.900 C 237.029 173.505,236.801 174.000,236.915 174.000 C 237.206 174.000,240.111 169.577,239.935 169.401 C 239.855 169.322,239.418 169.829,238.964 170.529 M153.664 173.873 C 153.607 175.372,153.485 175.564,152.500 175.713 L 151.400 175.880 152.513 175.940 C 153.796 176.009,154.125 175.436,153.892 173.538 C 153.742 172.312,153.723 172.340,153.664 173.873 M146.200 175.009 C 147.300 175.292,148.650 175.522,149.200 175.521 C 149.750 175.519,149.120 175.274,147.800 174.976 C 144.776 174.294,143.518 174.320,146.200 175.009 M234.961 176.400 C 234.122 177.500,233.293 178.400,233.118 178.400 C 232.943 178.400,232.807 178.625,232.816 178.900 C 232.832 179.394,234.505 177.638,236.056 175.500 C 237.453 173.575,236.548 174.318,234.961 176.400 M183.994 176.076 C 183.989 176.832,183.913 176.891,183.576 176.400 C 183.233 175.901,183.174 175.935,183.224 176.600 C 183.311 177.753,182.770 179.229,182.355 178.972 C 182.160 178.851,182.000 178.929,182.000 179.144 C 182.000 179.359,181.895 179.864,181.767 180.267 C 181.560 180.920,181.607 180.913,182.199 180.200 C 183.389 178.768,184.813 175.655,184.396 175.398 C 184.178 175.263,183.997 175.568,183.994 176.076 M197.863 175.500 C 197.762 175.665,198.216 175.820,198.873 175.844 C 199.665 175.874,199.888 175.775,199.533 175.550 C 198.868 175.128,198.105 175.105,197.863 175.500 M207.762 175.661 C 207.591 175.939,207.651 176.016,207.914 175.853 C 208.155 175.704,209.038 176.165,209.876 176.876 C 211.228 178.024,211.287 178.044,210.400 177.049 C 209.079 175.566,208.130 175.067,207.762 175.661 M195.200 177.000 C 194.210 177.530,193.542 177.972,193.716 177.982 C 194.141 178.006,197.200 176.434,197.200 176.192 C 197.200 175.927,197.217 175.920,195.200 177.000 M200.800 176.382 C 201.130 176.605,201.745 176.791,202.167 176.794 C 203.190 176.802,202.871 176.573,201.400 176.244 C 200.524 176.048,200.362 176.085,200.800 176.382 M204.800 176.620 C 203.580 176.970,203.322 177.140,204.000 177.150 C 204.550 177.158,205.540 176.917,206.200 176.614 C 207.677 175.938,207.174 175.940,204.800 176.620 M211.967 178.545 C 212.500 179.201,214.000 180.193,214.000 179.889 C 214.000 179.813,213.415 179.322,212.700 178.799 C 211.896 178.210,211.616 178.113,211.967 178.545 M230.600 180.231 C 229.720 180.757,229.180 181.189,229.400 181.192 C 229.881 181.198,232.400 179.698,232.400 179.406 C 232.400 179.144,232.483 179.107,230.600 180.231 M188.615 179.975 C 188.256 180.556,188.274 180.571,189.914 181.125 C 190.669 181.379,191.126 181.405,190.990 181.184 C 190.860 180.973,190.502 180.800,190.196 180.800 C 189.890 180.800,189.476 180.507,189.275 180.149 C 189.010 179.675,188.830 179.628,188.615 179.975 M146.876 182.772 C 147.636 183.746,149.054 185.162,150.028 185.919 L 151.800 187.295 150.200 185.866 C 149.320 185.079,147.902 183.663,147.048 182.718 L 145.496 181.000 146.876 182.772 M180.028 182.406 C 179.010 183.276,178.390 183.522,177.628 183.357 C 176.826 183.184,176.732 183.229,177.200 183.562 C 177.697 183.915,177.646 183.989,176.900 183.994 C 176.405 183.997,176.000 184.192,176.000 184.427 C 176.000 185.320,179.309 183.802,180.770 182.238 C 182.042 180.876,181.736 180.946,180.028 182.406 M218.474 181.660 C 219.709 182.007,227.218 182.016,228.083 181.672 C 228.458 181.522,226.242 181.400,223.157 181.400 C 220.072 181.400,217.965 181.517,218.474 181.660 M191.600 181.678 C 194.158 184.057,195.672 185.233,194.400 183.853 C 193.630 183.018,192.640 182.145,192.200 181.913 C 191.760 181.681,191.490 181.575,191.600 181.678 M155.600 183.933 C 155.930 184.136,156.650 184.424,157.200 184.571 C 157.895 184.757,158.017 184.725,157.600 184.467 C 157.270 184.264,156.550 183.976,156.000 183.829 C 155.305 183.643,155.183 183.675,155.600 183.933 M159.096 185.211 C 159.589 185.409,160.939 185.665,162.096 185.779 C 164.169 185.983,164.161 185.978,161.600 185.418 C 158.605 184.763,157.821 184.698,159.096 185.211 M171.600 185.271 C 170.390 185.468,168.320 185.775,167.000 185.953 C 164.836 186.246,164.764 186.284,166.271 186.339 C 168.253 186.411,173.710 185.693,174.936 185.199 C 176.100 184.730,174.745 184.759,171.600 185.271 M152.000 187.367 C 152.000 187.452,152.630 187.893,153.400 188.347 C 154.170 188.801,154.800 189.032,154.800 188.861 C 154.800 188.689,154.170 188.248,153.400 187.881 C 152.630 187.513,152.000 187.282,152.000 187.367 M154.848 190.000 C 154.842 190.330,155.083 191.140,155.386 191.800 C 156.093 193.345,156.103 192.626,155.400 190.800 C 155.103 190.030,154.855 189.670,154.848 190.000 M197.734 193.200 C 197.734 194.850,197.805 195.525,197.891 194.700 C 197.978 193.875,197.978 192.525,197.891 191.700 C 197.805 190.875,197.734 191.550,197.734 193.200 M156.000 193.345 C 156.000 193.779,158.387 198.400,158.612 198.400 C 158.722 198.400,158.248 197.275,157.558 195.900 C 156.252 193.294,156.000 192.881,156.000 193.345 M196.556 199.027 C 196.092 200.210,195.853 201.091,196.025 200.985 C 196.414 200.744,197.773 197.238,197.558 197.030 C 197.471 196.946,197.020 197.845,196.556 199.027 M159.251 199.600 C 160.349 201.919,169.600 209.291,169.600 207.847 C 169.600 207.737,168.497 207.059,167.148 206.340 C 164.759 205.067,161.511 202.221,159.683 199.800 C 158.928 198.799,158.856 198.766,159.251 199.600 M194.702 202.500 C 194.378 202.995,193.322 204.185,192.356 205.145 C 191.286 206.208,191.005 206.636,191.637 206.240 C 192.561 205.661,194.545 203.449,195.349 202.100 C 195.874 201.220,195.315 201.566,194.702 202.500 M171.000 208.614 C 171.660 208.917,172.470 209.158,172.800 209.152 C 173.130 209.145,172.770 208.897,172.000 208.600 C 170.174 207.897,169.455 207.907,171.000 208.614 M174.400 209.600 C 174.950 209.776,175.760 209.920,176.200 209.920 C 176.833 209.920,176.792 209.854,176.000 209.600 C 175.450 209.424,174.640 209.280,174.200 209.280 C 173.567 209.280,173.608 209.346,174.400 209.600 M183.600 209.600 C 182.796 209.857,182.757 209.923,183.400 209.932 C 183.840 209.938,184.560 209.789,185.000 209.600 C 186.019 209.162,184.968 209.162,183.600 209.600 M179.105 210.283 C 179.602 210.379,180.322 210.375,180.705 210.275 C 181.087 210.175,180.680 210.096,179.800 210.101 C 178.920 210.105,178.607 210.187,179.105 210.283 " stroke="none" fill="#a4acb4" fill-rule="evenodd"></path></g></svg>

